<?xml version="1.0" encoding="UTF-8" standalone="no"?>
<!-- Created with Inkscape (http://www.inkscape.org/) -->

<svg
   width="64"
   height="64"
   viewBox="0 0 16.933333 16.933334"
   version="1.1"
   id="svg5"
   sodipodi:docname="icon.svg"
   inkscape:version="1.1 (c4e8f9ed74, 2021-05-24)"
   inkscape:export-filename="/home/jummit/minecraft_modding/nether-map/icon.png"
   inkscape:export-xdpi="192.00002"
   inkscape:export-ydpi="192.00002"
   xmlns:inkscape="http://www.inkscape.org/namespaces/inkscape"
   xmlns:sodipodi="http://sodipodi.sourceforge.net/DTD/sodipodi-0.dtd"
   xmlns="http://www.w3.org/2000/svg"
   xmlns:svg="http://www.w3.org/2000/svg">
  <sodipodi:namedview
     id="namedview7"
     pagecolor="#ffffff"
     bordercolor="#999999"
     borderopacity="1"
     inkscape:pageshadow="0"
     inkscape:pageopacity="0"
     inkscape:pagecheckerboard="0"
     inkscape:document-units="mm"
     showgrid="false"
     showguides="false"
     units="px"
     width="64px"
     inkscape:zoom="8"
     inkscape:cx="35.375"
     inkscape:cy="42.5"
     inkscape:window-width="1920"
     inkscape:window-height="1182"
     inkscape:window-x="0"
     inkscape:window-y="0"
     inkscape:window-maximized="1"
     inkscape:current-layer="layer1" />
  <defs
     id="defs2" />
  <g
     inkscape:label="Layer 1"
     inkscape:groupmode="layer"
     id="layer1">
    <path
       id="rect846"
       style="fill:#ff3131;fill-opacity:1;stroke:none;stroke-width:0.527525;stroke-linecap:round;stroke-linejoin:round"
       d="m 2.3211883,0.0709743 c -1.1221339,0 -1.53947893,0.73474405 -1.55853813,1.3556167 C 0.7632424,2.1597055 1.3489214,2.7617299 2.0899609,2.7910048 V 6.533486 l 0.7895013,0.4970733 -0.4012534,0.99357 0.3205437,1.1132962 -0.7087916,1.1345255 v 4.944712 c 0,0.972109 0.6363136,1.639629 1.8138639,1.639629 H 15.490063 V 10.847438 L 14.894111,9.2789543 15.490063,7.5113732 V 5.7736298 L 14.955697,5.1935527 15.490063,4.3137794 c 0,0 -0.01209,-1.6695508 0.0019,-2.6258779 0,-0.87746913 -0.798049,-1.6169272 -1.551463,-1.6169272 z"
       sodipodi:nodetypes="scccccccccccccccccss" />
    <path
       id="circle976"
       style="fill:#700314;fill-opacity:1;stroke:none;stroke-width:0.493156;stroke-linecap:round;stroke-linejoin:round"
       d="m 3.9059285,14.152901 a 1.4398514,1.4010038 0 0 1 1.0622314,1.351982 1.4398514,1.4010038 0 0 1 -1.0960835,1.359633 l 11.5418676,-0.01836 c 0.74919,0 1.262821,-0.614285 1.26324,-1.34548 1e-6,-0.731483 -0.536866,-1.337638 -1.26305,-1.337638 z" />
    <path
       style="fill:#700314;fill-opacity:1;stroke:none;stroke-width:0.0979225px;stroke-linecap:butt;stroke-linejoin:miter;stroke-opacity:1"
       d="M 2.0899609,2.8225617 V 1.4539284 c 0,-0.3058887 -0.1109523,-0.52691609 -0.417142,-0.52691609 -0.6006019,0 -0.4613698,1.50150249 -0.2547282,1.66423979 0.3345782,0.1917643 0.3995136,0.1491397 0.6718702,0.2313096 z"
       id="path18776"
       sodipodi:nodetypes="ccscc" />
    <path
       style="fill:none;stroke:#000000;stroke-width:0.451153;stroke-linecap:butt;stroke-linejoin:miter;stroke-miterlimit:4;stroke-dasharray:0.902307, 1.80461;stroke-dashoffset:0;stroke-opacity:1"
       d="M 4.3427165,11.91764 11.189379,9.3585103 6.267517,6.4031588 11.349238,4.619004"
       id="path26096" />
    <path
       style="fill:none;stroke:#000000;stroke-width:0.451153;stroke-linecap:butt;stroke-linejoin:miter;stroke-miterlimit:4;stroke-dasharray:none;stroke-dashoffset:0;stroke-opacity:1"
       d="m 11.60017,2.8107074 1.82126,1.55239"
       id="path26098" />
    <path
       style="fill:none;stroke:#000000;stroke-width:0.451153;stroke-linecap:butt;stroke-linejoin:miter;stroke-miterlimit:4;stroke-dasharray:none;stroke-dashoffset:0;stroke-opacity:1"
       d="M 13.35507,2.7882607 11.80268,4.6095219"
       id="path26180" />
  </g>
</svg>
